<svg xmlns="http://www.w3.org/2000/svg" version="1.1" xmlns:xlink="http://www.w3.org/1999/xlink" xmlns:svgjs="http://svgjs.dev/svgjs" viewBox="0 0 800 800"><defs><filter id="ssspot-filter" x="-20%" y="-20%" width="140%" height="140%" filterUnits="objectBoundingBox" primitiveUnits="userSpaceOnUse" color-interpolation-filters="sRGB">
	<feTurbulence type="turbulence" baseFrequency="0.022 0.218" numOctaves="2" seed="174" stitchTiles="stitch" x="0%" y="0%" width="100%" height="100%" result="turbulence"></feTurbulence>
	<feGaussianBlur stdDeviation="0 3" x="0%" y="0%" width="100%" height="100%" in="turbulence" edgeMode="duplicate" result="blur"></feGaussianBlur>
	<feDisplacementMap in="SourceGraphic" in2="blur" scale="32" xChannelSelector="R" yChannelSelector="B" x="0%" y="0%" width="100%" height="100%" result="displacementMap"></feDisplacementMap>
</filter></defs><rect width="100%" height="100%" fill="hsl(0, 0%, 100%)"></rect><g fill="hsl(335, 77%, 50%)" filter="url(#ssspot-filter)"><circle r="3.5127560138349962" cx="99.16408692696126" cy="11.281569921505087" opacity="0.8979945680024383"></circle><circle r="7.151775281052342" cx="262.13332543492146" cy="318.7995340625777" opacity="0.29186026480576976"></circle><circle r="6.757677811607083" cx="369.82991376001803" cy="21.187848387270254" opacity="0.9200046181811294"></circle><circle r="6.120515284977605" cx="524.1594131499909" cy="666.9949550114777" opacity="0.9282823905359141"></circle><circle r="7.048394723356072" cx="342.34343097903957" cy="629.4418242958574" opacity="0.5334845331460664"></circle><circle r="5.702581725687117" cx="55.22486555486582" cy="385.9286349946268" opacity="0.5264809407596595"></circle><circle r="8.08906516571006" cx="23.033423461396367" cy="461.41540597464353" opacity="0.5771350633437183"></circle><circle r="5.6166944736723385" cx="194.11645289233192" cy="46.4017726956627" opacity="0.8337747459553222"></circle><circle r="5.422689922111719" cx="634.5734423134459" cy="780.1907439817332" opacity="0.32619783266135394"></circle><circle r="4.671604991600606" cx="571.7057427192649" cy="21.585425655499243" opacity="0.6337265850925603"></circle><circle r="5.931125724133525" cx="750.6451366149819" cy="315.9202412265404" opacity="0.23701432507288994"></circle><circle r="9.037697820390994" cx="20.564667240659887" cy="159.31686873263652" opacity="0.18728135508357363"></circle><circle r="6.180432910966649" cx="192.66347980424112" cy="680.6863480803927" opacity="0.8282943878814197"></circle><circle r="6.9117055918121455" cx="603.5664415753164" cy="772.2413198645812" opacity="0.6646576596312465"></circle><circle r="4.741794110851464" cx="667.0737067336503" cy="632.076826337276" opacity="0.6455648532809162"></circle><circle r="9.014454095070514" cx="207.56107809356735" cy="158.7097437175064" opacity="0.1689864888211406"></circle><circle r="8.915588212901977" cx="143.6994876265951" cy="620.904331145305" opacity="0.5534015743369145"></circle><circle r="6.465819438945939" cx="236.56286763103208" cy="727.7204322899917" opacity="0.5645707566481387"></circle><circle r="9.099163441025043" cx="16.364240689808117" cy="35.47768074648865" opacity="0.20582854387442612"></circle><circle r="7.3390413161042725" cx="726.6015659260521" cy="369.80591642346764" opacity="0.7530733573903275"></circle><circle r="8.219873690593758" cx="243.44925578428405" cy="212.57835041969568" opacity="0.2528443609570601"></circle><circle r="10.33668505741774" cx="479.50535947152264" cy="22.818112655277226" opacity="0.8625290623086669"></circle><circle r="4.587843046759173" cx="569.3229874036231" cy="247.37011665118976" opacity="0.6844561080463488"></circle><circle r="6.321319621342378" cx="783.6482809807933" cy="204.627731034679" opacity="0.4836784842968449"></circle><circle r="9.29486855468662" cx="179.06911956298228" cy="774.6985573981657" opacity="0.8798590380368957"></circle><circle r="10.742940090098386" cx="35.49931867233933" cy="558.7400948819889" opacity="0.38959079801457064"></circle><circle r="9.42593810978672" cx="441.4503012111468" cy="119.39018434309948" opacity="0.39443887009173173"></circle><circle r="8.300593545769855" cx="277.07359552667566" cy="493.91297875545246" opacity="0.37917712077002175"></circle><circle r="3.7954095421569707" cx="104.14302655406544" cy="204.27890397802386" opacity="0.5539241105106303"></circle><circle r="7.781947043411858" cx="775.5294813428816" cy="631.7755387315725" opacity="0.8963993540270565"></circle><circle r="4.509295172551889" cx="391.7892314508873" cy="671.1700355611381" opacity="0.7622038061661036"></circle><circle r="6.955527037904541" cx="23.498453362548624" cy="102.45532501486957" opacity="0.35990551420531214"></circle><circle r="7.410635223592111" cx="666.8839475707919" cy="496.9432904986504" opacity="0.8048274819385898"></circle><circle r="7.6900147062438675" cx="781.4933082610364" cy="548.4991785935263" opacity="0.22399871979453417"></circle><circle r="7.398051851640922" cx="694.744385919985" cy="415.2558830389742" opacity="0.6722464095838356"></circle><circle r="4.4551293523862086" cx="292.4170729157151" cy="607.322666947093" opacity="0.4627418733765145"></circle><circle r="6.717419709176544" cx="489.74226170048735" cy="194.50381891632986" opacity="0.1556277589590927"></circle><circle r="10.335978258045767" cx="688.6980458419522" cy="718.1860764698098" opacity="0.3657888076050706"></circle><circle r="8.595914011737243" cx="447.27828521702264" cy="420.6375557429329" opacity="0.37928014974366897"></circle><circle r="6.102315767474931" cx="771.1517272089535" cy="720.1398530933559" opacity="0.2179341365760411"></circle><circle r="4.4387600308268595" cx="718.9307753503168" cy="336.98268487545545" opacity="0.16877979576427976"></circle><circle r="6.178117269894152" cx="376.1138742625048" cy="61.94227838747537" opacity="0.24905228806750368"></circle><circle r="6.795361734487626" cx="687.2811179818658" cy="540.5109233973108" opacity="0.1134571549725408"></circle><circle r="9.348914770266525" cx="631.9316987193672" cy="218.33068350172772" opacity="0.761600507003379"></circle><circle r="7.263582408854235" cx="367.12363000482213" cy="494.4453683567433" opacity="0.7095619120411839"></circle><circle r="5.92302817926058" cx="712.038565522696" cy="241.3187932640722" opacity="0.5622255866006833"></circle><circle r="5.254413510486857" cx="510.78236830615305" cy="705.5939753832912" opacity="0.37059988164178437"></circle><circle r="7.386335189299854" cx="600.7553543511351" cy="274.7537105857113" opacity="0.2785561961890173"></circle><circle r="6.440818640620552" cx="786.8616700799612" cy="591.1720197632912" opacity="0.8419878320558883"></circle><circle r="5.397714462128255" cx="24.143610592304302" cy="422.4900511346915" opacity="0.884309670623742"></circle><circle r="5.1584821073906415" cx="734.738747968761" cy="647.8483226280616" opacity="0.17773666043369968"></circle><circle r="6.488275283021062" cx="573.9580100297236" cy="307.6528806064557" opacity="0.2892990377450597"></circle><circle r="8.45897030167744" cx="411.50293665963017" cy="600.3509506129606" opacity="0.2472407435226347"></circle><circle r="11.16337282655947" cx="314.0097206744817" cy="527.6840177118617" opacity="0.23484583741615664"></circle><circle r="4.875053110782168" cx="100.04165034721002" cy="426.31543988026914" opacity="0.265639509682765"></circle><circle r="4.455190243221959" cx="143.95793328810922" cy="280.37478424506753" opacity="0.9395127645049987"></circle><circle r="5.366942947512058" cx="460.0482250354414" cy="160.26798730018837" opacity="0.23760355957111617"></circle><circle r="3.84543474083096" cx="250.02287261559354" cy="10.592189721926674" opacity="0.7870732169848443"></circle><circle r="7.1567576216566895" cx="313.23445275413616" cy="397.3562875230149" opacity="0.6575312189560186"></circle><circle r="6.473337733548879" cx="105.7274321281351" cy="103.5228111457514" opacity="0.18357357086119533"></circle><circle r="6.757124953614335" cx="670.1230444503458" cy="191.90212348968595" opacity="0.10066221530080852"></circle><circle r="12.027479041801552" cx="346.0384134542669" cy="105.41103608194472" opacity="0.5172643482979852"></circle><circle r="5.17862323376554" cx="290.1887841731086" cy="33.95546001677984" opacity="0.6886837434177162"></circle><circle r="6.6345228680576795" cx="355.4608048434422" cy="451.15221480325823" opacity="0.8547559954303349"></circle><circle r="8.825154062962524" cx="481.22524006329127" cy="465.04246915456804" opacity="0.35555283090446443"></circle><circle r="9.741961624403796" cx="542.3285562848457" cy="623.2715682505079" opacity="0.8968401277520729"></circle><circle r="7.802455599126847" cx="574.7487031514349" cy="213.1044011659843" opacity="0.9515162403526601"></circle><circle r="5.888538382369425" cx="504.0621546810284" cy="330.2867619810565" opacity="0.9454662357883692"></circle><circle r="7.964744462465244" cx="429.4711395129263" cy="16.738595762756997" opacity="0.6352793116623392"></circle><circle r="11.329262511952486" cx="184.43748432750124" cy="242.4383231423281" opacity="0.8662590696116451"></circle><circle r="5.946456857617817" cx="299.2119543671826" cy="665.7849843783972" opacity="0.406133000572948"></circle><circle r="6.682637388866829" cx="563.3355203551018" cy="777.5288855636791" opacity="0.8891869016148213"></circle><circle r="5.483305844873409" cx="323.91455692398597" cy="323.76269476438665" opacity="0.30037746198773785"></circle><circle r="7.573777653956396" cx="240.3774770979115" cy="523.9494196348796" opacity="0.25320630834413793"></circle><circle r="8.963570080063654" cx="234.0051578741572" cy="274.9843937568703" opacity="0.9128602855081787"></circle><circle r="3.9183375841760766" cx="698.0640094172572" cy="9.360548933368648" opacity="0.8069181425637377"></circle><circle r="4.7932078226109525" cx="224.87491477035346" cy="681.9914340702607" opacity="0.31561353195502895"></circle><circle r="6.866109856147374" cx="606.4147067352401" cy="237.75461736210838" opacity="0.5910461041494935"></circle><circle r="8.837435312108381" cx="692.8047370738735" cy="588.8822126835809" opacity="0.8156345565054425"></circle><circle r="7.549537853365244" cx="673.5016092269929" cy="373.7553638693706" opacity="0.18437544173264406"></circle><circle r="10.777826961958972" cx="455.8185734839433" cy="675.5623095145386" opacity="0.1512248443362743"></circle><circle r="6.040524002963128" cx="122.90684508515156" cy="127.12192616894089" opacity="0.1366966955655912"></circle><circle r="8.666985821296617" cx="174.0615334558306" cy="489.3163836961505" opacity="0.46233919035623583"></circle><circle r="5.672184921789731" cx="481.4422889477496" cy="132.64774009181602" opacity="0.9709310239104434"></circle><circle r="7.834662858789884" cx="604.9807586746135" cy="563.0843642076409" opacity="0.5721732891160984"></circle><circle r="10.397442812205894" cx="313.96832357595713" cy="716.4517017945293" opacity="0.24932181676679913"></circle><circle r="8.81943766944393" cx="182.21453395566832" cy="287.16891443245447" opacity="0.1502320876039907"></circle><circle r="4.8997499973365946" cx="186.78623282034496" cy="384.8149993503579" opacity="0.7245952646057868"></circle><circle r="6.607328958498326" cx="106.04775461694017" cy="389.6651519211631" opacity="0.6516283643421548"></circle><circle r="8.154449112197058" cx="577.8725760355868" cy="504.0135077858819" opacity="0.38520783895558897"></circle><circle r="6.755496299580184" cx="371.00045937754476" cy="194.24296427642255" opacity="0.8785117219191215"></circle><circle r="10.490444872524758" cx="53.48892509214242" cy="661.0208800733918" opacity="0.3372438745314558"></circle><circle r="8.510359395924874" cx="753.6929884773065" cy="229.50370498276098" opacity="0.49921765394888784"></circle><circle r="5.650997459621708" cx="639.5242138235291" cy="591.6625563930475" opacity="0.38731585111459155"></circle><circle r="5.171976316747282" cx="578.9910921905916" cy="399.6491699117903" opacity="0.6789614230439341"></circle><circle r="7.452088980024315" cx="728.3325343829683" cy="283.45519570426956" opacity="0.7539331304815149"></circle><circle r="7.420149072494024" cx="573.8790214470428" cy="685.4262627277744" opacity="0.5559127326546172"></circle><circle r="9.752292978296843" cx="311.03641400696125" cy="206.62144542627576" opacity="0.35182016878134525"></circle><circle r="7.09457420365901" cx="202.03227231249843" cy="622.8596860301997" opacity="0.2631616406458639"></circle><circle r="10.762254429166669" cx="536.1900686112601" cy="564.7922165968504" opacity="0.6746539717426974"></circle><circle r="5.479644595996027" cx="113.7791224717848" cy="460.67607827918874" opacity="0.6052467032902183"></circle><circle r="4.097260060417167" cx="315.45406893367067" cy="10.658186287464112" opacity="0.12440391651699761"></circle><circle r="8.840442242386551" cx="187.64834243606415" cy="727.6832513659381" opacity="0.20243380573661768"></circle><circle r="8.866540387110604" cx="439.329938096084" cy="190.91371502714492" opacity="0.703546934814638"></circle><circle r="7.6919803653374546" cx="516.0001602972734" cy="147.448206596474" opacity="0.18105809254939212"></circle><circle r="5.1295304878255" cx="161.14546188108977" cy="664.3394766807345" opacity="0.34705329143900543"></circle><circle r="6.787453212059593" cx="285.4955601665048" cy="638.9096109319389" opacity="0.9084575418172263"></circle><circle r="5.998939020769954" cx="777.1549782438433" cy="779.2281522227685" opacity="0.5206304777625385"></circle><circle r="5.057425553702636" cx="236.95580537663471" cy="330.0907932231865" opacity="0.9017476466448684"></circle><circle r="6.1353374508056735" cx="735.4497345121542" cy="547.4840266507625" opacity="0.36943671033705616"></circle><circle r="7.757308026902119" cx="26.51122551324075" cy="349.18187298069824" opacity="0.7691898118160413"></circle><circle r="10.054974130170798" cx="779.3779117593051" cy="409.72227731706016" opacity="0.150110794470139"></circle><circle r="4.810425541491663" cx="97.19696190489941" cy="515.7770212683281" opacity="0.15419164829604587"></circle><circle r="6.724468510750126" cx="282.5049415880109" cy="387.1433104296706" opacity="0.25689027126877395"></circle><circle r="10.839196614869966" cx="502.5228022543803" cy="60.3503456927243" opacity="0.661410742712336"></circle><circle r="4.914723982251331" cx="775.0500922433623" cy="336.57350088559406" opacity="0.2717402263995697"></circle><circle r="8.782997721105604" cx="212.91667228378066" cy="87.06380764283087" opacity="0.6933857995028365"></circle><circle r="5.31881976706078" cx="694.5602112408153" cy="159.45277533940381" opacity="0.5090657904986378"></circle><circle r="6.681543962884619" cx="113.89141901942587" cy="339.79957264237424" opacity="0.45211854529447093"></circle><circle r="8.07022660411373" cx="277.6526469810827" cy="245.6769225501507" opacity="0.5062013870402988"></circle><circle r="7.978699377854044" cx="246.1021560161159" cy="569.2269602169569" opacity="0.5789911702658775"></circle><circle r="5.618463258452632" cx="538.696443702436" cy="253.60027000361865" opacity="0.592753432843507"></circle><circle r="5.283728882402114" cx="123.51239526751999" cy="54.20987568052334" opacity="0.1920993928386794"></circle><circle r="11.52702037096483" cx="616.540476767922" cy="519.1156081942977" opacity="0.856897120309723"></circle><circle r="9.250291381352842" cx="390.0127579425669" cy="268.11225395510496" opacity="0.3826032458250862"></circle><circle r="4.7878743902583185" cx="13.887237069120836" cy="668.1430716626223" opacity="0.44316384020216604"></circle><circle r="8.386704679056415" cx="330.38212281198014" cy="277.6490981185454" opacity="0.44553892787793226"></circle><circle r="3.792568126370467" cx="788.8765762265712" cy="699.7183648646284" opacity="0.8245274358308848"></circle><circle r="3.867724911528444" cx="90.90918192294023" cy="479.81891514303084" opacity="0.2787733025633978"></circle><circle r="5.170980340043876" cx="349.56392856734226" cy="380.8563670176558" opacity="0.33961824771445637"></circle><circle r="5.946999698543081" cx="773.1809161403303" cy="453.53539644611584" opacity="0.22949331160172215"></circle><circle r="7.0340009163816095" cx="758.1279241190489" cy="518.9478827368679" opacity="0.5724303370229499"></circle><circle r="7.706250290250894" cx="572.4478921463605" cy="464.3669099593541" opacity="0.6690264232635101"></circle><circle r="5.486907500501058" cx="554.6016770014722" cy="193.74606905589238" opacity="0.985625442859438"></circle><circle r="9.935570558469067" cx="63.38214180769599" cy="163.07992504848787" opacity="0.13710473946782545"></circle><circle r="5.065466241034394" cx="163.36378114798336" cy="566.0502822931079" opacity="0.20725383576991518"></circle><circle r="6.439208638796655" cx="785.5726896157347" cy="130.92795778793467" opacity="0.48210300100348"></circle><circle r="5.613089063006338" cx="282.26399811349893" cy="434.88811287114305" opacity="0.5858172636035405"></circle><circle r="5.004822246962874" cx="756.933768645705" cy="739.0573054879382" opacity="0.9124294123277648"></circle><circle r="12.136237244947718" cx="129.54534553688327" cy="774.3044549252693" opacity="0.16911809868946798"></circle><circle r="8.247241758978692" cx="273.8742852078158" cy="70.81399510419317" opacity="0.5916514877605243"></circle><circle r="14.766528879635088" cx="464.23189326926746" cy="548.3423184032945" opacity="0.550250527938457"></circle><circle r="6.667115592613005" cx="110.47525167032806" cy="724.7669114938233" opacity="0.8078247396543312"></circle><circle r="5.707686137132683" cx="154.2328082052536" cy="203.91000861949757" opacity="0.31749068852565066"></circle><circle r="8.308292845889476" cx="168.30271852072877" cy="450.0240993642338" opacity="0.8299105531699486"></circle><circle r="8.89970174433209" cx="667.7934690369996" cy="235.28896026378018" opacity="0.23879447923398392"></circle><circle r="5.421128436209732" cx="269.74564127773203" cy="706.3673528327215" opacity="0.5464309502902438"></circle><circle r="5.792825920448967" cx="40.463155667004955" cy="246.47241672558587" opacity="0.35408976053760655"></circle><circle r="6.995843161227179" cx="519.8885862279301" cy="367.5724166784203" opacity="0.4645284958670447"></circle><circle r="4.793629506437684" cx="393.48602356954535" cy="373.40339441590476" opacity="0.259068522044699"></circle><circle r="9.741713810318746" cx="658.4345445739896" cy="445.0687423068642" opacity="0.4911688809115975"></circle><circle r="6.536893680080295" cx="586.2071589731469" cy="90.00746501054007" opacity="0.18838267014193727"></circle><circle r="4.623343202654818" cx="209.3644036256843" cy="310.9109872339182" opacity="0.8417677206238604"></circle><circle r="7.329589405272966" cx="712.0529996678713" cy="682.3162015935809" opacity="0.20921951780403472"></circle><circle r="8.134121251690742" cx="188.94132004500722" cy="526.9623675389926" opacity="0.1596667355735197"></circle><circle r="9.693941236011913" cx="672.2331967545621" cy="54.68752670579559" opacity="0.7064415985201697"></circle><circle r="6.689335093331486" cx="652.2385396481908" cy="677.5657259869546" opacity="0.1887764276975481"></circle><circle r="8.522640344286955" cx="592.3680570512809" cy="127.41435389177724" opacity="0.9051402166292396"></circle><circle r="5.637708463851834" cx="204.38263024911424" cy="573.6116076631997" opacity="0.7214581476837836"></circle><circle r="6.243730458035504" cx="149.20814987198065" cy="43.34246208858036" opacity="0.5052535574108694"></circle><circle r="5.6230058327346075" cx="518.2248614086454" cy="226.90941235381214" opacity="0.3014119419767375"></circle><circle r="6.820430029594835" cx="63.71297721691082" cy="437.60588307249765" opacity="0.31768858764239294"></circle><circle r="8.525028078800716" cx="662.4359143596018" cy="760.5480693414199" opacity="0.20519158989312086"></circle><circle r="5.770135660537516" cx="734.9388516303726" cy="604.5355811911869" opacity="0.3329657733497171"></circle><circle r="10.866833434363114" cx="458.1784988119434" cy="315.3218802735139" opacity="0.5989975619609879"></circle><circle r="10.059279615644868" cx="632.9546461050118" cy="131.20388559119544" opacity="0.7197798719841374"></circle><circle r="8.516157785145765" cx="638.127791562236" cy="43.654677863420744" opacity="0.23578796281615186"></circle><circle r="7.415759167772409" cx="482.6178781398788" cy="782.6633851982048" opacity="0.9750839966810612"></circle><circle r="10.359371143300276" cx="50.50918280963765" cy="705.8487201088979" opacity="0.30552843386710204"></circle><circle r="7.692810480009404" cx="288.38078847430717" cy="332.9314704042219" opacity="0.8795987181621793"></circle><circle r="5.7572022088551735" cx="33.01735912935191" cy="780.4772373864206" opacity="0.5943624615246286"></circle><circle r="6.939633830951054" cx="618.3207055556139" cy="445.7831579809814" opacity="0.27238417566741835"></circle><circle r="4.843350265823361" cx="721.0492599402581" cy="572.5138235713895" opacity="0.9954955412754405"></circle><circle r="9.579015573296155" cx="722.4736902761395" cy="455.5413318502126" opacity="0.9478987451542606"></circle><circle r="9.17167924512342" cx="25.39904805087279" cy="209.92387265750233" opacity="0.17370487765060472"></circle><circle r="6.506682439115837" cx="179.50267394412438" cy="120.54425926042066" opacity="0.34733901456158833"></circle><circle r="5.376792048778437" cx="145.93813547934886" cy="705.4311994196755" opacity="0.2988335247784491"></circle><circle r="6.800879943166165" cx="555.81593475303" cy="141.8500912939665" opacity="0.15955200387664742"></circle><circle r="7.910512280872965" cx="306.47763203451996" cy="94.80031931168179" opacity="0.324564689850368"></circle><circle r="6.678351322551003" cx="701.2772671304588" cy="628.5014369181566" opacity="0.3340578549969556"></circle><circle r="4.981712128179729" cx="68.3876550692622" cy="277.89913932886026" opacity="0.5906619915215408"></circle><circle r="4.64005719614949" cx="554.53154216691" cy="723.356500310045" opacity="0.8372043794210128"></circle><circle r="6.322375722218783" cx="373.22521006481963" cy="411.57646966542706" opacity="0.40009034249041997"></circle><circle r="5.184327588428444" cx="741.69352331858" cy="405.14972722987574" opacity="0.7983662783975308"></circle><circle r="6.360185486375154" cx="16.301920315764193" cy="387.30763500866334" opacity="0.785503284536531"></circle><circle r="8.375483362523166" cx="349.3654691039472" cy="557.5962289873275" opacity="0.9726129781245793"></circle><circle r="4.477044408871364" cx="656.9079772586269" cy="15.678065273738374" opacity="0.11562827610711819"></circle><circle r="5.465676008592109" cx="642.6152043763664" cy="173.59936179134385" opacity="0.6907272254840722"></circle><circle r="5.553973302174725" cx="710.536379638738" cy="748.8120136870641" opacity="0.2454846716625122"></circle><circle r="3.5509334616219435" cx="168.37974020868518" cy="13.096212393494872" opacity="0.20291363827822576"></circle><circle r="6.953698420797705" cx="246.06494069726935" cy="651.4438454433077" opacity="0.5189415150630305"></circle><circle r="4.287377710849221" cx="583.3318514511002" cy="428.36667864862727" opacity="0.6302625908161559"></circle><circle r="8.976349008869244" cx="252.75363579952068" cy="608.1464267463214" opacity="0.29659935663350667"></circle><circle r="8.255294424561393" cx="682.5943860118332" cy="94.79312363772826" opacity="0.8288665523830151"></circle><circle r="4.904731352767605" cx="420.854581578861" cy="72.01768671325735" opacity="0.6832906252620903"></circle><circle r="8.691278741780387" cx="314.8672142416545" cy="469.9194805567851" opacity="0.4974166816849809"></circle><circle r="7.223410974320191" cx="103.88570773228487" cy="163.92417531634499" opacity="0.18937783982623427"></circle><circle r="8.865372904410474" cx="525.1915744602233" cy="781.5959612929983" opacity="0.8461487027873502"></circle><circle r="5.376673080749766" cx="148.53358260857382" cy="87.54351902723313" opacity="0.6873930360482507"></circle><circle r="7.075561352504673" cx="200.73136580293067" cy="416.3892350691776" opacity="0.4031923392203566"></circle><circle r="8.221580770592585" cx="522.3941536140093" cy="508.01992216996223" opacity="0.7110167325771884"></circle><circle r="6.6810768684935855" cx="218.16495116595885" cy="475.94973998604587" opacity="0.1065756957157681"></circle><circle r="4.84924291600002" cx="156.01644057763752" cy="151.04115121891599" opacity="0.7472720225418541"></circle><circle r="8.054177576646186" cx="726.0094869158211" cy="117.95022330227177" opacity="0.39410762815348577"></circle><circle r="5.222680567916266" cx="619.0100767692009" cy="10.920784516211922" opacity="0.17651813583157028"></circle><circle r="5.060960654484313" cx="451.2598359743055" cy="758.7667996077573" opacity="0.695452248878432"></circle><circle r="5.355565165088004" cx="638.085093504959" cy="85.66813020566322" opacity="0.9428203431250086"></circle><circle r="11.801808567029608" cx="419.63516761137646" cy="713.7645733037682" opacity="0.42355363417012826"></circle><circle r="9.800442634430663" cx="56.957506619795126" cy="501.13471738267987" opacity="0.9452010638667083"></circle><circle r="5.196655520705143" cx="600.706973910201" cy="59.64528322639698" opacity="0.7126407080917027"></circle><circle r="4.579132951022142" cx="531.7154789869725" cy="178.8851527051085" opacity="0.7713070741946702"></circle><circle r="10.325693194984071" cx="529.4439190376822" cy="20.826061194330535" opacity="0.6181516750903893"></circle><circle r="7.8569545594139365" cx="618.0272473123536" cy="314.4053593368943" opacity="0.7573993672673123"></circle><circle r="6.080991955383947" cx="330.2916276089116" cy="160.1935455345714" opacity="0.11933724529817095"></circle><circle r="9.726530306290512" cx="367.458762883393" cy="715.1870411460801" opacity="0.5399195529974232"></circle><circle r="4.781718128241424" cx="103.80408348349195" cy="69.46054573588033" opacity="0.9021013744475659"></circle><circle r="5.942446160306527" cx="52.570499392384136" cy="49.70321665742196" opacity="0.5824391856822477"></circle><circle r="7.128810746137537" cx="539.8972715452984" cy="289.13681233423307" opacity="0.9767988804238346"></circle><circle r="9.980041285333577" cx="79.00483400136117" cy="357.63942185656754" opacity="0.33462855917606504"></circle><circle r="7.752614185495807" cx="657.114762670461" cy="562.7861454043752" opacity="0.6418459175502129"></circle><circle r="5.278667838060853" cx="287.2354077217425" cy="564.1047628801648" opacity="0.2846763796885441"></circle><circle r="3.2983546173013525" cx="401.19887410107293" cy="92.10434598966697" opacity="0.8634846116231215"></circle><circle r="9.08755247308396" cx="370.12348238006916" cy="146.6651389019812" opacity="0.5175792677076668"></circle><circle r="5.9063260577110945" cx="132.95628403282163" cy="250.27876064691625" opacity="0.6278053857245091"></circle><circle r="4.050014964133222" cx="118.4051369675189" cy="225.98102690291742" opacity="0.9736790448664716"></circle><circle r="9.009961347391016" cx="399.75966487838826" cy="222.68377157773284" opacity="0.9879581207658842"></circle><circle r="8.364260693937434" cx="69.28237176696656" cy="124.29812884120307" opacity="0.8454399230271982"></circle><circle r="7.588944956610904" cx="443.773566882267" cy="231.03860433159275" opacity="0.4552429098388683"></circle><circle r="6.787233561741338" cx="367.5986070732061" cy="308.98953897547415" opacity="0.5310393483039928"></circle><circle r="7.594723130569118" cx="338.8087597445558" cy="675.6305045108638" opacity="0.44893537526427985"></circle><circle r="8.80400443879818" cx="330.0797928227534" cy="593.3265308557027" opacity="0.7580904765182402"></circle><circle r="5.872310240452698" cx="425.5542471256425" cy="45.5655389298842" opacity="0.5862467148455159"></circle><circle r="5.527726926770944" cx="169.85606787087522" cy="362.7957480565255" opacity="0.730627536787556"></circle><circle r="7.289002255213735" cx="718.1547193632381" cy="65.04458939415937" opacity="0.5743307212539942"></circle><circle r="3.773839336614559" cx="538.5408432775797" cy="422.863678792903" opacity="0.6074641995477191"></circle><circle r="6.794459048647894" cx="53.791221225731746" cy="15.426970441914223" opacity="0.4975609863260366"></circle><circle r="7.359826475999649" cx="531.8407792204906" cy="454.90722060044567" opacity="0.34082028482697946"></circle><circle r="5.949547807846782" cx="90.13290348029847" cy="251.05967811418392" opacity="0.9536896663385788"></circle><circle r="5.49196250791476" cx="175.77078941198752" cy="333.29067039246803" opacity="0.920150044442311"></circle><circle r="7.324465129872621" cx="223.86703246265608" cy="368.85283081973074" opacity="0.16255231306468132"></circle><circle r="7.637083176521125" cx="559.8972104051489" cy="339.8733052397273" opacity="0.5616679956270292"></circle><circle r="7.844700929167956" cx="244.8401334587739" cy="398.2570841103859" opacity="0.35779920646692853"></circle><circle r="4.8038135066074155" cx="702.4102790590927" cy="200.45299229876343" opacity="0.8420238061798297"></circle><circle r="10.053845790145711" cx="585.1236467214576" cy="601.6768328819223" opacity="0.5588281660221108"></circle><circle r="4.670341100225926" cx="676.7990040591112" cy="130.62178025659418" opacity="0.45430508903370814"></circle><circle r="6.618340762741855" cx="139.01383002203286" cy="503.55643605000597" opacity="0.767732170943944"></circle><circle r="8.030610596338608" cx="627.4186633667756" cy="627.3093944967835" opacity="0.22576576861249945"></circle><circle r="12.230532862472463" cx="26.476938244728622" cy="613.5207700856887" opacity="0.13022618230660252"></circle><circle r="9.201882946163588" cx="202.25208659919457" cy="198.0697726105339" opacity="0.5795954323182966"></circle><circle r="7.381881207922632" cx="390.4023956275033" cy="636.5515775450341" opacity="0.8386716772713809"></circle><circle r="4.402380585881232" cx="360.9702595992377" cy="348.57670177346114" opacity="0.571686349959587"></circle><circle r="9.156174855821623" cx="477.4630646603478" cy="252.20354537788316" opacity="0.9286083022874041"></circle><circle r="10.092628674556877" cx="394.9951513722362" cy="544.3215950813537" opacity="0.5438586183958047"></circle><circle r="9.431217574452974" cx="346.87754990844" cy="240.84013650715946" opacity="0.7840583360211781"></circle><circle r="4.445109379607591" cx="260.3519683106525" cy="361.2002090325874" opacity="0.8273758620806672"></circle><circle r="6.256430592265066" cx="140.7316627438368" cy="369.44398565984005" opacity="0.338142789919221"></circle><circle r="10.465393983634073" cx="778.9991636932976" cy="275.4748616321947" opacity="0.8142733822687753"></circle><circle r="5.938041264576438" cx="462.93147125529754" cy="79.2130230106951" opacity="0.43136033845478317"></circle><circle r="6.318713215057084" cx="724.3837235809167" cy="787.3419919895395" opacity="0.40715018056416186"></circle><circle r="6.627875660347571" cx="288.24065662812967" cy="289.42511951354214" opacity="0.7011355478561817"></circle><circle r="5.09061174532728" cx="764.9335833333841" cy="154.59002977485065" opacity="0.269614303062085"></circle><circle r="7.2873341859321314" cx="95.54213469035686" cy="550.9258378759868" opacity="0.24659599599568163"></circle><circle r="8.921851674775311" cx="406.506031435937" cy="449.2157735180924" opacity="0.4177327514266146"></circle><circle r="10.547393892354513" cx="649.5464817485336" cy="334.2628302975314" opacity="0.8751781934926707"></circle><circle r="11.628389322542077" cx="278.41234907286184" cy="156.90027264110537" opacity="0.48709239927125225"></circle><circle r="4.364085273180747" cx="79.91690331983845" cy="89.3912246619896" opacity="0.25507773037157444"></circle><circle r="9.552965514032689" cx="239.07873857212383" cy="40.343335095399866" opacity="0.3786893345292206"></circle><circle r="4.92239220772993" cx="331.1166393288513" cy="45.05179175272628" opacity="0.40624079375079647"></circle><circle r="7.1767305409674975" cx="107.43156830030573" cy="299.8496244396152" opacity="0.275562294167883"></circle><circle r="4.147144403445146" cx="61.731511624040564" cy="73.0406649710879" opacity="0.2870577277011219"></circle><circle r="3.771910531828674" cx="520.9578165896555" cy="405.9000012519974" opacity="0.7385116664213223"></circle><circle r="11.791320929185243" cx="769.7259900189754" cy="84.94339749014212" opacity="0.21011819499846637"></circle><circle r="8.871270183214152" cx="347.72853570839135" cy="771.1865127575346" opacity="0.1710549024533246"></circle><circle r="5.295470852357711" cx="410.3438107470508" cy="163.56561441627755" opacity="0.42151588830759534"></circle><circle r="7.615453925165925" cx="148.12599806399743" cy="322.14181842159326" opacity="0.8444427340241366"></circle><circle r="4.276054612315746" cx="739.3691460619076" cy="759.2448605964232" opacity="0.8377897678818516"></circle><circle r="4.680410681709598" cx="686.5514336786899" cy="782.5554291106127" opacity="0.345202910498808"></circle><circle r="7.762190344331296" cx="332.98314283381706" cy="420.9694274542539" opacity="0.6969789200440214"></circle><circle r="8.383273339073378" cx="781.9835468882175" cy="494.6977720776059" opacity="0.7387612039743359"></circle><circle r="10.547209324339143" cx="600.1018255350277" cy="657.8091317004369" opacity="0.7757328158715993"></circle><circle r="8.23409182475841" cx="297.2334683082632" cy="768.4182477295354" opacity="0.2820068858724757"></circle><circle r="5.547570404462973" cx="499.07159860701336" cy="285.9524750273663" opacity="0.9675621608806368"></circle><circle r="4.238820399636044" cx="430.92055369710283" cy="369.7742696920484" opacity="0.5766322291905162"></circle><circle r="7.650626493090613" cx="689.7352160201569" cy="317.2405098508006" opacity="0.3696442599699815"></circle><circle r="3.996156216817085" cx="430.19222662435493" cy="785.4588848370174" opacity="0.81421477274683"></circle><circle r="6.880265766128602" cx="127.32110460444834" cy="568.5848622780513" opacity="0.8267572893240289"></circle><circle r="10.116394550346264" cx="628.5891346929251" cy="719.5208546654482" opacity="0.13717842346066078"></circle><circle r="6.032628871311082" cx="735.7702381246382" cy="177.06758222104673" opacity="0.14162686501016136"></circle><circle r="4.315713337424034" cx="759.4566491327552" cy="587.7168951479288" opacity="0.3382543595043722"></circle><circle r="6.619029441253366" cx="17.703066062259033" cy="507.69598663489546" opacity="0.7498626296285303"></circle><circle r="6.040306023675518" cx="202.27920319122927" cy="348.6370950818214" opacity="0.9801222019158096"></circle><circle r="4.539262510889872" cx="134.73874802609242" cy="430.61319900573807" opacity="0.4102584135047024"></circle><circle r="7.752228486936936" cx="412.0946286743977" cy="329.59305883297526" opacity="0.226874023117404"></circle><circle r="11.27633338024323" cx="100.81914212923894" cy="670.1170847891021" opacity="0.22850119794390059"></circle><circle r="11.843782155535305" cx="768.145432404458" cy="28.837953911002757" opacity="0.6112189865543863"></circle><circle r="3.3658168113279183" cx="103.83826590157031" cy="33.60982804753395" opacity="0.659471350501197"></circle><circle r="14.791659143954838" cx="83.20895859639414" cy="608.8951371417741" opacity="0.855642836690016"></circle><circle r="8.971605509652779" cx="20.851953917436592" cy="314.0861241939993" opacity="0.22294529279556516"></circle><circle r="5.9091896598001075" cx="408.63187938318674" cy="411.4972146918594" opacity="0.6527107336813931"></circle><circle r="6.4512864317205745" cx="221.36443750334917" cy="770.3785936758071" opacity="0.7553174767442503"></circle><circle r="10.177422541977474" cx="64.53183104025868" cy="315.9582492527802" opacity="0.6064805513980855"></circle><circle r="8.891335098474032" cx="247.26617578490166" cy="118.63317812647493" opacity="0.4804225376155412"></circle><circle r="6.724376971855229" cx="488.4403889018084" cy="403.73617904961355" opacity="0.9212622721116169"></circle><circle r="7.269050164080824" cx="585.8572804704293" cy="738.3751340260094" opacity="0.5786110149225048"></circle><circle r="6.992257396516811" cx="398.51350214772395" cy="121.57780777007724" opacity="0.634524257879844"></circle><circle r="6.72762085199896" cx="18.2976711014378" cy="274.3907337956507" opacity="0.5955196713226264"></circle><circle r="8.586378947648662" cx="622.5600727526352" cy="379.54603473151474" opacity="0.8622557275068932"></circle><circle r="9.168353823308632" cx="79.4932467846677" cy="761.757086303316" opacity="0.9537189854830889"></circle><circle r="6.121086885186633" cx="71.04703092947481" cy="204.27506926422322" opacity="0.9501387292251885"></circle><circle r="4.676466098464833" cx="603.5862874161853" cy="28.57577587445231" opacity="0.255308256740736"></circle><circle r="8.654929164679213" cx="512.6453482781782" cy="747.0535049553296" opacity="0.7352675133070448"></circle><circle r="5.592574515769384" cx="311.56599507762155" cy="360.22931662421826" opacity="0.20117961560540615"></circle><circle r="8.937742685512855" cx="256.83415618204043" cy="777.2347513072615" opacity="0.7613857057534642"></circle><circle r="6.702344045974431" cx="466.85190938109747" cy="370.0608834880586" opacity="0.49856331576573554"></circle><circle r="8.311269802379057" cx="395.8973227281885" cy="763.8621603018619" opacity="0.3541640748685181"></circle><circle r="10.877992645616699" cx="477.8177970524954" cy="620.4731651283619" opacity="0.7368480186517044"></circle><circle r="8.999101028853351" cx="549.428554869958" cy="61.50802957772829" opacity="0.2677013621536546"></circle><circle r="7.712748968159759" cx="597.2302630187751" cy="175.7114608529204" opacity="0.623853643392872"></circle><circle r="7.153031206389564" cx="136.05777876970959" cy="172.1397329720565" opacity="0.6066066919042831"></circle><circle r="6.8164492957614815" cx="504.3623130291866" cy="103.85606531943861" opacity="0.2031540778330218"></circle><circle r="6.1534850538384855" cx="710.7821079090503" cy="28.693887177783225" opacity="0.14892662768999457"></circle><circle r="4.586186153868838" cx="155.70925528051094" cy="405.3738964907997" opacity="0.4329223882001392"></circle><circle r="5.501455244689087" cx="429.97308173689123" cy="280.6334450289124" opacity="0.5576953420078427"></circle><circle r="12.13874505620962" cx="429.70377074066306" cy="491.35543718949646" opacity="0.6710906845947866"></circle><circle r="9.252239565958499" cx="469.38775537816423" cy="728.2720942535051" opacity="0.8953258750013642"></circle><circle r="7.191583704081873" cx="21.931691595856737" cy="735.5993505811686" opacity="0.40800438015117246"></circle><circle r="8.860373871439037" cx="542.9858229933728" cy="101.28828042878126" opacity="0.23527139051389043"></circle><circle r="10.69852288889423" cx="663.2664232865336" cy="276.6901094311801" opacity="0.4461721721267853"></circle><circle r="5.6209104806125785" cx="782.9583757183946" cy="370.39189466688805" opacity="0.4507334872546134"></circle><circle r="7.92315571796954" cx="721.2750230480468" cy="500.01382904913635" opacity="0.20734793636828114"></circle><circle r="6.242902874971781" cx="238.84623972990894" cy="439.628152963517" opacity="0.6980349466456395"></circle><circle r="6.98101334142099" cx="568.0772765815989" cy="372.50059236582007" opacity="0.271085265830839"></circle><circle r="7.007505897365176" cx="770.5456282121431" cy="672.9568145621917" opacity="0.6978190764067413"></circle></g></svg>